<?xml version="1.0" encoding="UTF-8" standalone="no"?>
<svg
   xmlns:dc="http://purl.org/dc/elements/1.1/"
   xmlns:cc="http://creativecommons.org/ns#"
   xmlns:rdf="http://www.w3.org/1999/02/22-rdf-syntax-ns#"
   xmlns:svg="http://www.w3.org/2000/svg"
   xmlns="http://www.w3.org/2000/svg"
   viewBox="0 0 325.12 96.760002"
   height="96.760002"
   width="325.12"
   xml:space="preserve"
   id="svg2"
   version="1.1"><metadata
     id="metadata8"><rdf:RDF><cc:Work
         rdf:about=""><dc:format>image/svg+xml</dc:format><dc:type
           rdf:resource="http://purl.org/dc/dcmitype/StillImage" /></cc:Work></rdf:RDF></metadata><defs
     id="defs6" /><g
     transform="matrix(1.3333333,0,0,-1.3333333,0,96.76)"
     id="g10"><g
       transform="scale(0.1)"
       id="g12"><path
         id="path14"
         style="fill:#479ef5;fill-opacity:1;fill-rule:nonzero;stroke:none"
         d="m 887.504,372.656 c -11.828,3.946 -24.816,5.801 -38.738,5.801 -28.539,0 -56.61,-13.223 -56.61,-49.414 0,-53.594 70.989,-40.84 70.989,-71.68 0,-14.629 -16.469,-20.879 -28.77,-20.879 -12.758,0 -25.52,3.926 -36.648,9.961 l -3.02,-29.218 c 16.012,-3.946 23.898,-6.27 41.527,-6.27 32.711,0 60.782,13.457 60.782,48.945 0,54.297 -70.993,42.461 -70.993,70.528 0,17.636 14.383,22.5 25.524,22.5 11.367,0 22.738,-2.539 32.941,-6.953 z m 27.383,-99.98 c 0,-34.356 22.961,-61.719 62.398,-61.719 39.685,0 62.645,27.363 62.645,61.719 0,39.433 -27.14,63.32 -62.645,63.32 -35.258,0 -62.398,-23.887 -62.398,-63.32 m 32.48,3.711 c 0,17.851 9.738,35.488 29.918,35.488 20.418,0 30.165,-17.168 30.165,-35.488 0,-19.961 -6.26,-41.309 -30.165,-41.309 -23.656,0 -29.918,21.582 -29.918,41.309 m 225.503,56.836 h -31.09 v -58.457 c 0,-15.332 -4.88,-39.688 -27.39,-39.688 -19.94,0 -20.18,19.727 -20.18,34.336 v 63.809 h -31.08 v -75.41 c 0,-26.915 12.29,-46.856 40.6,-46.856 16.24,0 29.7,7.422 39.2,19.023 h 0.46 v -16.25 h 29.48 z m 41.06,-83.535 c 0,-23.653 13.46,-38.731 37.81,-38.731 9.28,0 16.48,0.918 22.97,2.773 l -0.93,24.59 c -3.25,-2.09 -8.58,-3.242 -14.16,-3.242 -11.82,0 -14.61,9.512 -14.61,19.727 v 55.664 h 27.61 v 22.754 h -27.61 v 33.867 l -31.08,-9.981 v -23.886 h -22.97 v -22.754 h 22.97 z m 78.88,-35.958 h 31.08 v 58.458 c 0,15.332 4.87,39.687 27.37,39.687 19.96,0 20.19,-19.727 20.19,-34.336 V 213.73 h 31.08 v 75.411 c 0,26.914 -12.29,46.855 -40.59,46.855 -16.24,0 -29.69,-7.422 -37.58,-19.023 h -0.47 v 70.761 h -31.08 z m 294.4,62.657 h -47.32 l 23.43,66.816 h 0.45 z m -104.4,-62.657 h 33.64 l 14.16,37.129 h 65.64 l 13.93,-37.129 h 35.96 l -63.58,161.954 h -36.64 z m 290,119.493 h -31.1 v -58.457 c 0,-15.332 -4.87,-39.688 -27.37,-39.688 -19.96,0 -20.18,19.727 -20.18,34.336 v 63.809 h -31.09 v -75.41 c 0,-26.915 12.3,-46.856 40.6,-46.856 16.24,0 29.69,7.422 39.21,19.023 h 0.46 v -16.25 h 29.47 z m 103.92,-1.621 c -9.73,2.07 -19.24,4.394 -33.86,4.394 -24.37,0 -46.87,-11.367 -46.87,-37.109 0,-43.164 54.05,-27.149 54.05,-50.586 0,-11.602 -12.52,-14.61 -20.41,-14.61 -10.67,0 -20.88,3.008 -30.61,7.891 l -1.86,-25.527 c 11.37,-3.008 23.42,-5.098 35.26,-5.098 25.29,0 50.11,11.133 50.11,38.965 0,43.164 -54.06,31.094 -54.06,50.117 0,10.215 9.98,13.223 18.34,13.223 11.37,0 18.32,-1.856 27.83,-5.098 z m 38.99,-81.914 c 0,-23.653 13.45,-38.731 37.8,-38.731 9.29,0 16.48,0.918 22.97,2.773 l -0.92,24.59 c -3.24,-2.09 -8.58,-3.242 -14.16,-3.242 -11.83,0 -14.61,9.512 -14.61,19.727 v 55.664 h 27.6 v 22.754 h -27.6 v 33.867 l -31.08,-9.981 v -23.886 h -22.98 v -22.754 h 22.98 z m 79.57,-35.958 h 31.08 v 43.848 c 0,17.188 0,48.731 25.3,48.731 5.56,0 11.13,-0.938 13.92,-2.559 v 31.328 c -3.26,0.918 -6.5,0.918 -9.51,0.918 -18.57,0 -31.33,-18.789 -32.73,-29.922 h -0.45 v 27.149 h -27.61 z m 94.66,86.543 c 10.44,7.891 23.65,12.989 36.87,12.989 18.34,0 26.93,-6.504 26.93,-25.742 h -17.17 c -13,0 -28.31,-1.172 -40.15,-6.954 -11.83,-5.8 -20.41,-16.25 -20.41,-34.121 0,-22.734 20.65,-35.488 41.77,-35.488 14.15,0 29.69,7.422 36.88,20.645 h 0.47 c 0.23,-3.711 0.23,-11.602 1.39,-17.872 h 27.38 c -0.7,9.278 -1.17,17.637 -1.41,26.68 -0.23,8.828 -0.45,17.871 -0.45,29.942 v 15.312 c 0,35.254 -15.08,50.332 -51.5,50.332 -13.24,0 -29.47,-3.476 -41.54,-9.043 z m 15.77,-51.972 c 0,18.34 20.65,20.664 34.57,20.664 h 13.46 c 0,-9.297 -1.4,-17.871 -6.5,-24.61 -4.87,-6.484 -12.3,-10.664 -21.82,-10.664 -11.13,0 -19.71,4.414 -19.71,14.61 m 106.49,-34.571 h 31.09 v 174.004 h -31.09 z m 63.34,0 h 31.09 v 119.493 h -31.09 z m 0,141.29 h 31.09 v 29.707 h -31.09 z m 68.9,-54.747 c 10.44,7.891 23.66,12.989 36.88,12.989 18.34,0 26.92,-6.504 26.92,-25.742 h -17.17 c -12.99,0 -28.3,-1.172 -40.14,-6.954 -11.83,-5.8 -20.41,-16.25 -20.41,-34.121 0,-22.734 20.65,-35.488 41.76,-35.488 14.14,0 29.7,7.422 36.88,20.645 h 0.46 c 0.24,-3.711 0.24,-11.602 1.39,-17.872 h 27.38 c -0.7,9.278 -1.15,17.637 -1.38,26.68 -0.24,8.828 -0.47,17.871 -0.47,29.942 v 15.312 c 0,35.254 -15.08,50.332 -51.51,50.332 -13.22,0 -29.45,-3.476 -41.52,-9.043 z m 15.77,-51.972 c 0,18.34 20.64,20.664 34.57,20.664 h 13.46 c 0,-9.297 -1.39,-17.871 -6.51,-24.61 -4.86,-6.484 -12.28,-10.664 -21.79,-10.664 -11.15,0 -19.73,4.414 -19.73,14.61" /><path
         id="path16"
         style="fill:#479ef5;fill-opacity:1;fill-rule:nonzero;stroke:none"
         d="m 796.328,550.605 c 0,-43.378 24.59,-61.25 66.121,-61.25 41.531,0 66.121,17.872 66.121,61.25 v 103.458 h -32.48 v -93.477 c 0,-27.617 -8.82,-45.723 -33.641,-45.723 -24.816,0 -33.64,18.106 -33.64,45.723 v 93.477 h -32.481 z m 164.723,-58.457 h 31.078 v 58.457 c 0,15.313 4.883,39.668 27.381,39.668 19.95,0 20.18,-19.726 20.18,-34.335 v -63.79 h 31.09 v 75.391 c 0,26.914 -12.29,46.856 -40.6,46.856 -16.24,0 -29.46,-5.332 -39.207,-19.004 h -0.465 v 16.23 h -29.457 z m 141.279,0 h 31.09 v 119.473 h -31.09 z m 0,141.27 h 31.09 v 29.707 h -31.09 z m 93.73,-141.27 h 35.03 l 44.08,119.473 h -31.08 l -28.77,-86.992 h -0.47 l -29.69,86.992 h -33.41 z m 118.78,71.446 c 1.4,16.015 10.2,28.066 27.61,28.066 17.4,0 24.36,-12.988 25.29,-28.066 z m 73.78,-39.434 c -11.6,-6.504 -24.59,-12.07 -39.67,-12.07 -19.26,0 -32.71,10.898 -34.11,30.156 h 82.61 c 0,41.758 -12.54,72.149 -56.85,72.149 -37.12,0 -55.45,-28.536 -55.45,-63.086 0,-39.219 22.97,-61.954 62.41,-61.954 16.7,0 29.69,3.243 41.06,9.512 z m 32.71,-32.012 h 31.1 v 43.829 c 0,17.168 0,48.73 25.28,48.73 5.58,0 11.12,-0.918 13.92,-2.559 v 31.329 c -3.25,0.918 -6.5,0.918 -9.52,0.918 -18.55,0 -31.3,-18.79 -32.71,-29.922 h -0.46 v 27.148 h -27.61 z M 1582.8,610 c -9.74,2.09 -19.25,4.395 -33.87,4.395 -24.35,0 -46.85,-11.368 -46.85,-37.11 0,-43.144 54.04,-27.148 54.04,-50.586 0,-11.601 -12.53,-14.609 -20.41,-14.609 -10.69,0 -20.88,3.008 -30.63,7.89 l -1.85,-25.527 c 11.36,-3.008 23.44,-5.098 35.26,-5.098 25.28,0 50.11,11.133 50.11,38.985 0,43.144 -54.04,31.074 -54.04,50.098 0,10.214 9.96,13.222 18.32,13.222 11.36,0 18.32,-1.855 27.83,-5.097 z m 29.46,-117.852 h 31.08 v 119.473 h -31.08 z m 0,141.27 h 31.08 v 29.707 h -31.08 z m 72.85,-105.313 c 0,-23.671 13.46,-38.75 37.82,-38.75 9.28,0 16.47,0.918 22.95,2.793 l -0.91,24.59 c -3.25,-2.09 -8.59,-3.261 -14.16,-3.261 -11.83,0 -14.61,9.511 -14.61,19.726 v 55.684 h 27.61 v 22.734 h -27.61 v 33.867 l -31.09,-9.98 v -23.887 h -22.98 v -22.734 h 22.98 z m 99.76,83.516 h -34.34 l 45.71,-125.527 c 0,-12.754 -7.66,-21.328 -20.19,-21.328 -7.65,0 -12.06,0.703 -16.01,2.089 l -2.09,-22.968 c 7.2,-2.09 14.61,-3.262 22.05,-3.262 32.49,0 39.67,25.996 49.63,52.441 l 44.79,118.555 h -31.54 l -28.77,-87.246 h -0.47 z m 162.63,-60.566 c 0,-34.317 22.97,-61.7 62.41,-61.7 39.67,0 62.63,27.383 62.63,61.7 0,39.453 -27.14,63.34 -62.63,63.34 -35.28,0 -62.41,-23.887 -62.41,-63.34 m 32.49,3.73 c 0,17.852 9.73,35.488 29.92,35.488 20.41,0 30.15,-17.168 30.15,-35.488 0,-19.961 -6.27,-41.308 -30.15,-41.308 -23.67,0 -29.92,21.582 -29.92,41.308 m 127.12,-62.637 h 31.09 v 96.739 h 27.16 v 22.734 h -27.16 v 14.844 c 0,9.277 3.25,18.32 13.69,18.32 6.73,0 10.67,-2.539 13.47,-4.16 l 2.54,25.742 c -6.03,1.387 -14.85,2.559 -22.74,2.559 -24.59,0 -38.05,-16.699 -38.05,-40.606 v -16.699 h -22.96 v -22.734 h 22.96 v -96.739" /><path
         id="path18"
         style="fill:#479ef5;fill-opacity:1;fill-rule:nonzero;stroke:none"
         d="m 323.102,295.566 c 0,-14.785 -11.989,-26.777 -26.778,-26.777 -14.801,0 -26.793,11.992 -26.793,26.777 v 182.793 l 53.571,30.645 -53.688,31.309 -53.812,-31.016 0.121,-213.731 c 0,-44.511 36.078,-80.586 80.601,-80.586 44.512,0 80.59,36.075 80.59,80.586 v 244.551 l 53.801,30.781 -53.801,31.231 -53.812,-31.035 z m -107.383,151.758 -53.801,31.231 -53.809,-31.016 0.118,-151.973 c 0,-103.867 84.214,-188.086 188.089,-188.086 103.883,0 188.082,84.219 188.082,188.086 v 306.27 l 53.809,30.781 -53.809,31.25 -53.796,-31.035 0.468,-337.168 c -0.058,-74.101 -60.632,-134.355 -134.754,-134.355 -74.16,0 -134.277,60.097 -134.277,134.257 V 416.602 Z M 591.902,295.566 C 591.902,132.324 459.57,0 296.324,0 133.07,0 0.0117188,132.422 0.0117188,295.664 L 0,725.664 H 591.902 V 295.566" /></g></g></svg>